<svg aria-labelledby="titleBuscador4444000237407A iconBuscador4444000237407A" height="18px" role="img" viewBox="0 0 64 64" width="18px" xmlns="http://www.w3.org/2000/svg"><title id="titleBuscador4444000237407A">Ir al buscador de Orange</title><desc id="iconBuscador4444000237407A">Un icono en forma de lupa</desc><path fill="#FFFFFF" d="M62.953,57.205l-17.8-17.8c2.882-4.033,4.583-8.966,4.583-14.301c0-13.604-11.028-24.632-24.632-24.632 C11.5,0.472,0.472,11.5,0.472,25.104c0,13.604,11.028,24.632,24.632,24.632c5.334,0,10.268-1.701,14.301-4.583l17.8,17.8 c0.766,0.766,2.021,0.766,2.787,0l2.962-2.962C63.72,59.225,63.72,57.971,62.953,57.205z M25.104,41.854 c-9.251,0-16.75-7.499-16.75-16.75s7.499-16.75,16.75-16.75c9.251,0,16.75,7.499,16.75,16.75S34.355,41.854,25.104,41.854z"></path></svg>